<svg width="16" height="16" viewBox="0 0 16 16" fill="inherit" xmlns="http://www.w3.org/2000/svg">
<path d="M14.6859 12.8333C14.0832 10.388 12.2279 8.52801 9.89923 7.86468C10.9439 7.22335 11.6426 6.07068 11.6426 4.75735C11.6426 2.74868 10.0086 1.11401 7.9999 1.11401C5.99123 1.11401 4.35723 2.74868 4.35723 4.75735C4.35723 6.07068 5.0559 7.22335 6.10057 7.86468C3.7719 8.52868 1.9159 10.388 1.3139 12.8333C1.19457 13.318 1.3059 13.8253 1.61923 14.2253C1.9479 14.6453 2.44123 14.8853 2.97257 14.8853H13.0266C13.5579 14.8853 14.0519 14.6453 14.3799 14.2253C14.6946 13.8253 14.8052 13.318 14.6859 12.8333ZM5.15723 4.75735C5.15723 3.18935 6.43257 1.91401 7.9999 1.91401C9.56723 1.91401 10.8426 3.18935 10.8426 4.75735C10.8426 6.32535 9.5679 7.60001 7.9999 7.60001C6.4319 7.60001 5.15723 6.32468 5.15723 4.75735ZM13.7506 13.7327C13.5772 13.954 13.3066 14.086 13.0266 14.086H2.97257C2.69257 14.086 2.4219 13.954 2.24857 13.7327C2.08523 13.5247 2.02923 13.2733 2.0899 13.0247C2.76123 10.302 5.19123 8.40001 7.9999 8.40001C10.8086 8.40001 13.2386 10.302 13.9092 13.0247C13.9706 13.2727 13.9139 13.524 13.7506 13.7327Z" fill="inherit"/>
</svg>
