<svg width="65" height="80" viewBox="0 0 65 80" fill="#252525" xmlns="http://www.w3.org/2000/svg">
  <path d="M43.3767 56.4585L48.9564 49.615C49.7079 48.7048 50.6587 48.0816 51.6934 47.8213C52.7281 47.561 53.8021 47.6747 54.7851 48.1486L61.5854 51.4787C62.5788 51.9732 63.4306 52.8174 64.0334 53.9047C64.6363 54.9921 64.9632 56.274 64.973 57.5889V72.8644C64.9672 73.7589 64.8139 74.6426 64.5223 75.4625C64.2307 76.2824 63.8069 77.0215 63.2763 77.6351C62.7456 78.2488 62.1193 78.7244 61.4348 79.0334C60.7504 79.3424 60.0221 79.4782 59.2937 79.4329C11.6423 75.7973 2.02733 26.3046 0.208954 7.36293C0.124544 6.43276 0.201667 5.49121 0.43525 4.60023C0.668833 3.70924 1.05358 2.88901 1.56418 2.1935C2.07479 1.49798 2.69967 0.942945 3.39773 0.564903C4.09579 0.186861 4.8512 -0.00561883 5.61426 0.000124859H17.6454C18.719 0.00402252 19.7672 0.401772 20.655 1.14221C21.5428 1.88265 22.2297 2.93193 22.6273 4.15507L25.3424 12.4955C25.7416 13.6964 25.8434 15.0149 25.6352 16.2863C25.427 17.5578 24.9179 18.7258 24.1717 19.6445L18.592 26.4879C18.592 26.4879 21.8053 53.159 43.3767 56.4585Z" fill="#252525" />
</svg>